<?xml version="1.0" encoding="UTF-8"?><svg xmlns="http://www.w3.org/2000/svg" class="header" enable-background="new 0 0 343 66" height="39px" preserveAspectRatio="xMidYMid meet" viewBox="0 0 343 66" width="200px"><defs><style>.cls-1{fill:#d12d2c;}</style></defs><title/><g id="_2"><path class="cls-1" d="M55,3.66A7.34,7.34,0,0,0,47.67,11V22.92L29.34,22V9.16A9.17,9.17,0,0,0,11,9.16V56.84a9.17,9.17,0,0,0,18.34,0V42.17H47.67V56.84a7.34,7.34,0,0,0,14.67,0V11A7.34,7.34,0,0,0,55,3.66Z"/><path class="cls-1" d="M36.67,14.66v5.87l3.67.18V12.83A9.16,9.16,0,0,1,42,7.66a7.35,7.35,0,0,0-5.28,7Z"/><path class="cls-1" d="M40.34,44H36.67v9.17a7.34,7.34,0,0,0,5.28,7A9.16,9.16,0,0,1,40.34,55V44Z"/><path class="cls-1" d="M45.84,44H42.17V55a7.35,7.35,0,0,0,5.28,7,9.21,9.21,0,0,1-1.61-5.17V44Z"/><path class="cls-1" d="M42.17,12.83v8l3.67.18V11a9.16,9.16,0,0,1,1.61-5.17,7.34,7.34,0,0,0-5.28,7Z"/><path class="cls-1" d="M4.49,8.65A9.16,9.16,0,0,0,0,16.5V51.34a9.15,9.15,0,0,0,4.49,7.84A11,11,0,0,1,3.67,55V12.83a11.12,11.12,0,0,1,.82-4.18Z"/><path class="cls-1" d="M9.17,9.16A11.12,11.12,0,0,1,10,5,9.18,9.18,0,0,0,5.5,12.83V55a9.16,9.16,0,0,0,6,8.56,11,11,0,0,1-2.33-6.72V9.16Z"/><path class="cls-1" d="M174.08,35.75a8,8,0,0,1,8-7.68h.3a7.68,7.68,0,0,1,7.67,7.69Zm8-11.62,0,0h-.52A13.05,13.05,0,0,0,169,37.58c0,.39,0,.77,0,1.15a13,13,0,0,0,13.57,12.4,15.33,15.33,0,0,0,9.17-2.77,1.82,1.82,0,0,0,.86-1.59,1.92,1.92,0,0,0-2-1.83,1.7,1.7,0,0,0-1.08.25,11.42,11.42,0,0,1-6.51,2.08,8.55,8.55,0,0,1-8.89-8h17.87c1.85,0,2.88-.84,2.88-2.29q0-.39,0-.78a12.45,12.45,0,0,0-12.83-12Z"/><path class="cls-1" d="M200.4,14.66A2.42,2.42,0,0,0,198,17.07V48.38a2.41,2.41,0,1,0,4.82,0V17.07a2.44,2.44,0,0,0-2.44-2.41Z"/><path class="cls-1" d="M217.05,35c-3.24-.68-6.07-1.6-6.07-3.67S213.06,28,216.36,28a11,11,0,0,1,6.38,2,1.83,1.83,0,0,0,1.08.37A1.95,1.95,0,0,0,225,26.8a14.71,14.71,0,0,0-8.73-2.67c-6.31,0-10,3.52-10,7.62,0,5.56,5.21,6.73,9.67,7.74,3.35.75,6.34,1.6,6.34,4.16,0,2.18-2,3.67-5.65,3.67a12.8,12.8,0,0,1-7.33-2.46,2.21,2.21,0,0,0-1.19-.36h0a2.07,2.07,0,0,0-2.07,2,2.09,2.09,0,0,0,.92,1.67,15.71,15.71,0,0,0,9.55,2.88c6.91,0,10.58-3.49,10.58-7.91,0-5.92-5.41-7.15-10-8.15Z"/><path class="cls-1" d="M99,17.27a2.7,2.7,0,0,0-2.79-2.61,2.73,2.73,0,0,0-2.71,2.68V48.13h0a2.75,2.75,0,0,0,2.84,2.66A2.7,2.7,0,0,0,99,48.11V34.61H119V48.13a2.75,2.75,0,1,0,5.5,0V17.34a2.75,2.75,0,1,0-5.5,0V29.88H99V17.27Z"/><path class="cls-1" d="M141.46,46.88c-5.21,0-8.14-4.49-8.14-9.28s2.87-9.17,8.14-9.17,8.14,4.31,8.14,9.17-2.94,9.28-8.14,9.28Zm0-22.52A13.24,13.24,0,0,0,128.22,37.6a11,11,0,0,0,0,1.15,12.82,12.82,0,0,0,13.25,12.4c8.19,0,13.24-6.09,13.24-13.55a13.24,13.24,0,0,0-13.24-13.24Z"/><path class="cls-1" d="M233.1,44.44l0-.07a3.33,3.33,0,1,0,0,6.65,3.45,3.45,0,0,0,3.42-3.35,3.4,3.4,0,0,0-3.43-3.23Z"/><path class="cls-1" d="M274.81,46.88c-5.21,0-8.14-4.49-8.14-9.28s2.88-9.17,8.14-9.17S283,32.74,283,37.6s-2.93,9.28-8.14,9.28Zm0-22.52A13.24,13.24,0,0,0,261.57,37.6c0,.38,0,.77,0,1.15a12.82,12.82,0,0,0,13.25,12.4c8.19,0,13.24-6.09,13.24-13.55a13.24,13.24,0,0,0-13.24-13.24Z"/><path class="cls-1" d="M320.78,24.11a11.18,11.18,0,0,0-8.92,4.8,6.76,6.76,0,0,0-7.11-4.8,11.37,11.37,0,0,0-8.47,4.27V26.89a2.45,2.45,0,0,0-2.49-2.4,2.4,2.4,0,0,0-2.39,2.4V48.4h0a2.42,2.42,0,0,0,2.44,2.4,2.44,2.44,0,0,0,2.44-2.4V33.92c1.3-1.87,3.85-5,6.4-5,3.3,0,4.6,1.43,4.6,4.42v15a2.44,2.44,0,0,0,2.44,2.4h0a2.4,2.4,0,0,0,2.4-2.4V33.73c1.24-1.87,3.85-4.8,6.51-4.8,3.19,0,4.54,1.43,4.54,4.42v15a2.4,2.4,0,0,0,2.39,2.4,2.45,2.45,0,0,0,2.49-2.4V31.9h0c0-5.17-2.51-7.79-7.33-7.79Z"/><path class="cls-1" d="M264.61,38a3.68,3.68,0,0,0-2.69,1.43c-2.88,4.7-6.55,7.46-10.21,7.34-5.16-.11-8.47-4-8.47-9.28s3.31-9.17,8.47-9.17a7.37,7.37,0,0,1,5.26,2,2.2,2.2,0,0,0,1.47.53h0a2.16,2.16,0,0,0,2.15-2.18,2.24,2.24,0,0,0-.75-1.59,11.77,11.77,0,0,0-8.35-3q-.6,0-1.2,0A12.83,12.83,0,0,0,238.16,37.6a13.42,13.42,0,0,0,22.33,10.16,20.46,20.46,0,0,0,4.42-5.7c.57-1,.95-4-.3-4Z"/><path class="cls-1" d="M172.65,42.33c-1.33,0-3.67,4.57-6.66,4.57-1.69,0-2.55-1.32-2.55-3.15V29h3.41a2.11,2.11,0,1,0,0-4.22h-3.41V19.83a2.44,2.44,0,0,0-2.44-2.4h0a2.41,2.41,0,0,0-2.41,2.4v4.92h-2.49a2.11,2.11,0,1,0,0,4.22h2.57V44.83c0,4.05,2.11,6.34,6.23,6.34a8.14,8.14,0,0,0,3.67-.75c1.9-.92,4.55-3,4.55-3.85,0-1.18.88-4.24-.44-4.24Z"/><path class="cls-1" d="M334.05,20.17a.58.58,0,0,0,.57-.57V15.73h1.1a.51.51,0,0,0,0-1h-3.34a.51.51,0,0,0-.41.41.52.52,0,0,0,.41.6h1.1V19.6a.58.58,0,0,0,.57.57Z"/><path class="cls-1" d="M341.9,14.66a.92.92,0,0,0-.86.61l-1,2.8L339,15.27a.93.93,0,0,0-1.83.33v4a.56.56,0,1,0,1.12,0V16.22l1.43,3.67a.29.29,0,0,0,.17.17.33.33,0,0,0,.43-.17l1.43-3.67V19.6a.57.57,0,0,0,.55.56.56.56,0,0,0,.55-.56v-4a.94.94,0,0,0-.93-.94Z"/><path class="cls-1" d="M342.3,20.17h0Z"/></g></svg>